<?xml version="1.0" encoding="utf-8"?>
<!-- Generator: Adobe Illustrator 21.0.0, SVG Export Plug-In . SVG Version: 6.00 Build 0)  -->
<svg version="1.1" id="Camada_1" xmlns="http://www.w3.org/2000/svg" xmlns:xlink="http://www.w3.org/1999/xlink" x="0px" y="0px"
	 viewBox="0 0 218.7 42.7" style="enable-background:new 0 0 218.7 42.7;" xml:space="preserve">
<style type="text/css">
	.st0{fill-rule:evenodd;clip-rule:evenodd;fill:#00C0F0;}
</style>
<path class="st0" d="M120.2,14.2c-3.3-0.4-6.1,0.6-8.5,3.5v-0.9V1.2V1.1V0L103,1.1v41h8.7v-2.4c1.2,0.8,2.3,1.8,3.7,2.3
	c5.1,1.8,11.8,0.3,14.1-6.4c1.5-4.4,1.5-8.8,0.3-13.2C128.5,17.4,125.3,14.7,120.2,14.2 M121.5,32c-0.4,2.7-2.5,4.1-5.1,3.9
	c-0.6,0-1.2-0.2-1.7-0.4c-2.1-1.2-2.7-3.2-2.9-4.4c0,0,0,0,0,0c-0.1-1.9-0.3-6,0.6-7.9c0.8-1.5,2.2-2.3,4-2.3c2.6-0.1,4.6,1.2,5,3.9
	C121.9,27.2,121.9,29.6,121.5,32"/>
<path class="st0" d="M151.1,14.7c-3-0.8-6.1-0.8-9.1,0c-4.5,1.2-7.5,4.1-8.5,8.6c-0.5,2.5-0.6,5.1-0.5,7.7c0.3,5.8,3.9,10,9.5,11.3
	c0.1,0,0.2,0,0.2,0.1h0c0,0,0,0,0,0c0.2,0,0.4,0.1,0.6,0.1c0.1,0,0.1,0,0.2,0h0c0.3,0,0.6,0.1,0.9,0.1c1.1,0.1,2.5,0.2,3.6,0.1
	c0,0,0,0,0,0c0.1,0,0.1,0,0.2,0c5.8-0.3,10.1-3.9,11.4-9.5c0.7-3.1,0.7-6.1,0-9.2C158.8,19.1,155.9,16,151.1,14.7 M151.5,31.5
	c0,0.2-0.1,0.4-0.1,0.5c-0.6,2.6-2.4,4-4.9,3.8c-2.7-0.1-4.5-1.7-4.8-4.4c-0.2-2-0.2-3.9,0-5.9c0.3-3.1,2.2-4.8,5.1-4.7
	c2.4,0,4.1,1.4,4.7,3.7C151.9,26.9,151.5,31,151.5,31.5"/>
<path class="st0" d="M20.4,14.6h-6.2v-4.1c0.5-3.9,6.9-3.2,6.9-3.2l0-0.3l0,0V0.5h0v0h0c-0.2-0.1-12.8-3-15.3,6.6c0,0,0,0,0,0
	c0,0,0,0,0,0.1c-0.4,1.2-0.4,6.7-0.4,7.4H0v7.3h5.7v20H14v-20h6.4l0.7-7.3H20.4z"/>
<path class="st0" d="M40.3,18.1c-0.1-0.1-0.2-0.2-0.3-0.3v0c0,0,0,0,0,0c-0.1-0.1-0.2-0.2-0.2-0.2c-2-2-2.7-2.5-4.2-2.9
	c-5.9-1.7-11.7,1.4-13.5,7.3c-1.1,3.7-1.1,7.4-0.5,11.1c1.4,8,7.4,10.7,13.7,9.4c1.9-0.4,3.4-1.6,4.7-3.3c0,0,0.1-0.1,0.3-0.4v3.5
	h8.1V14.6h-8.1L40.3,18.1L40.3,18.1z M39.6,31.9c-0.3,2.5-2.3,4.1-4.8,4c-2.5-0.1-4.1-1.4-4.7-3.8c-0.6-3.4,0.1-7.5,0.2-7.8
	c0.7-2.3,2.3-3.4,4.8-3.4c2.4,0.1,4.2,1.5,4.5,4C39.8,27.2,39.8,29.6,39.6,31.9"/>
<path class="st0" d="M73.2,40.1c-0.4-1.4-0.8-2.7-1.2-4.1l-0.4-1.5c0,0-10.2,4.9-11.8-4.4c-0.1-1.5-0.1-3.1,0.1-4.6
	c0.4-2.9,2.1-4.4,4.9-4.6c0.9-0.1,1.9,0,2.8,0.1c1.3,0.2,2.5,0.6,3.9,0.9c0.5-1.5,1-2.9,1.4-4.4c0.1-0.2,0.1-0.4,0.2-0.6h0l0.2-0.9
	c-0.1-0.1-0.2-0.2-0.4-0.4v0c-0.2-0.2-0.6-0.4-1.3-0.6c-0.2-0.1-0.5-0.2-0.7-0.3c-0.2-0.1-0.4-0.1-0.4-0.1h0
	c-2.7-0.8-5.4-0.8-8.2-0.5c-5.9,0.6-9.9,4.1-11,9.8c-0.6,3-0.6,6.1,0.1,9.1c1,4.5,3.7,7.5,8.2,8.8c2.9,0.9,5.9,0.9,8.9,0.4
	c1.2-0.2,3-0.8,4.3-1.3l0.5-0.2L73.2,40.1L73.2,40.1z"/>
<path class="st0" d="M100,29.4c0-1.9,0-3.8-0.3-5.7c-0.7-5.1-3.9-8.4-8.9-9.2c-1.9-0.3-4-0.3-5.9-0.1c-5.4,0.5-9.4,3.9-10.3,8.9
	c-0.5,3.1-0.6,6.3-0.2,9.4c0.6,4.6,2.9,7.5,6.7,9h0c0,0,0,0,0.1,0c0,0,0,0,0,0c1.8,0.5,10.4,2.8,18.1-1L99,39.4c0,0,0,0,0,0
	c-0.4-1.5-0.8-3-1.2-4.5l0-0.1c0,0-0.2,0.1-0.4,0.1c0,0,0,0,0,0c-0.3,0.1-0.7,0.2-1,0.3c-0.1,0-0.1,0-0.2,0.1
	c-1.2,0.3-2.8,0.7-4.6,1c-1.5,0.1-2.9,0.2-4.4,0c-2.4-0.4-4.3-1.7-4.2-4.8h1.4c4.8,0,9.5,0,14.3,0c0.1,0,0.2,0,0.3,0l0,0
	c0,0,1,0,1.1,0c0,0,0-0.3,0-0.3L100,29.4z M92.2,25.6h-9.4c0-1.9,0.3-3.6,1.9-4.7c1.8-1.1,3.7-1.2,5.5-0.2
	C92.1,21.8,92.2,23.6,92.2,25.6"/>
<polygon class="st0" points="201.5,27.4 201.5,1.3 201.5,1.1 201.5,0 192.8,1.1 192.8,42.1 201.5,42.1 201.5,29.6 209.5,42.1 
	218.7,42.1 210,28.5 218.7,14.9 209.5,14.9 "/>
<path class="st0" d="M180.8,14.7c-3-0.8-6.1-0.8-9.1,0c-4.5,1.2-7.5,4.1-8.5,8.6c-0.5,2.5-0.6,5.1-0.5,7.7c0.3,5.8,3.9,10,9.5,11.3
	c0.1,0,0.2,0,0.2,0.1h0c0,0,0,0,0,0c0.2,0,0.4,0.1,0.6,0.1c0.1,0,0.1,0,0.2,0c0,0,0,0,0,0c0.3,0.1,0.6,0.1,0.9,0.1
	c1.1,0.1,2.5,0.2,3.7,0.1c0,0,0,0,0,0c0.1,0,0.1,0,0.2,0c5.8-0.3,10.2-3.9,11.4-9.5c0.7-3.1,0.7-6.1,0-9.2
	C188.5,19.1,185.6,16,180.8,14.7 M181.2,31.5c0,0.2-0.1,0.4-0.1,0.5c-0.6,2.6-2.4,4-4.9,3.8c-2.7-0.1-4.5-1.7-4.8-4.4
	c-0.2-2-0.2-3.9,0-5.9c0.3-3.1,2.2-4.8,5.1-4.7c2.4,0,4.1,1.4,4.7,3.7C181.6,26.9,181.2,31,181.2,31.5"/>
</svg>
