<svg id="Layer_1" data-name="Layer 1" xmlns="http://www.w3.org/2000/svg" xmlns:xlink="http://www.w3.org/1999/xlink" viewBox="0 0 76.33 76.79"><defs><style>.cls-1{fill:none;}.cls-2{fill:#2d69af;}.cls-3{clip-path:url(#clip-path);}</style><clipPath id="clip-path"><circle class="cls-1" cx="38.14" cy="38.57" r="37.4"/></clipPath></defs><title>Artboard 1</title><path class="cls-2" d="M38.14,1.17A37.17,37.17,0,0,0,20,5.88,24.67,24.67,0,0,1,37.63,18.65h.25A16.21,16.21,0,0,1,54.09,34.85a16,16,0,0,1-.23,2.61,13.9,13.9,0,0,1-7.37,25.69H10a37.39,37.39,0,1,0,28.16-62Z"/><g class="cls-3"><path class="cls-2" d="M24.78,19.08h0a4.16,4.16,0,0,1-4.16,4.16H-30.2a4.16,4.16,0,0,1-4.16-4.16h0a4.16,4.16,0,0,1,4.16-4.16H20.61A4.16,4.16,0,0,1,24.78,19.08Z"/></g><g class="cls-3"><path class="cls-2" d="M-36.35,41.36h0a4.16,4.16,0,0,1,4.16-4.16H28.56a4.16,4.16,0,0,1,4.16,4.16h0a4.16,4.16,0,0,1-4.16,4.16H-32.19A4.16,4.16,0,0,1-36.35,41.36Z"/></g><g class="cls-3"><path class="cls-2" d="M-32.37,52.48h0a4.16,4.16,0,0,1,4.16-4.16H32.54a4.16,4.16,0,0,1,4.16,4.16h0a4.16,4.16,0,0,1-4.16,4.16H-28.21A4.16,4.16,0,0,1-32.37,52.48Z"/></g><g class="cls-3"><path class="cls-2" d="M-40.33,30.24h0a4.16,4.16,0,0,1,4.16-4.16H24.58a4.16,4.16,0,0,1,4.16,4.16h0a4.16,4.16,0,0,1-4.16,4.16H-36.16A4.17,4.17,0,0,1-40.33,30.24Z"/></g></svg>