<?xml version="1.0" encoding="utf-8"?>
<!-- Generator: Adobe Illustrator 19.2.0, SVG Export Plug-In . SVG Version: 6.00 Build 0)  -->
<svg version="1.1" id="Layer_1" xmlns="http://www.w3.org/2000/svg" xmlns:xlink="http://www.w3.org/1999/xlink" x="0px" y="0px"
	 viewBox="0 0 367 74.8" style="enable-background:new 0 0 367 74.8;" xml:space="preserve">
<style type="text/css">
	.st0{fill:#2D69AF;}
	.st1{fill:#43C6F0;}
</style>
<g>
	<path class="st0" d="M264.6,16.4c0-2.6-2.1-4.7-4.7-4.7h-10.3c-3.5,0-4.9,2.1-4.9,4.1c0,0.6,0,1.1,0,1.1h-0.2c0,0-3.4-6.3-13.7-6.3
		c-12.8,0-19.8,10-19.8,22.3c0,12.3,7.3,22.6,20,22.6c5.9,0,9.8-2,12.4-5.8h0.2c0,0-0.1,1.3-0.1,2.4v2.1c0,8.1-5.9,11-12.6,11
		c-5.4,0-10-1.9-11.7-2.7c-0.8-0.5-1.7-0.8-2.6-0.8c-2.6,0-4.7,2.1-4.7,4.7c0,2.1,1.4,3.9,3.3,4.5l0,0c4.3,2.3,10.2,3.9,15.8,3.9
		c11.6,0,23.5-5.8,23.5-21.1V22.9c0-1.1,0.8-1.8,1.9-1.8h3.4C262.5,21.1,264.6,19,264.6,16.4z M233.4,46.1
		c-7.2,0-11.1-5.8-11.1-13.6c0-7.5,3.7-12.4,10.4-12.4c6,0,11.1,2.7,11.1,12.9C243.8,43.1,238.8,46.1,233.4,46.1z"/>
	<path class="st0" d="M286.7,10.6c-13.5,0-24.4,9.7-24.4,23.4c0,13.8,10.8,23.4,24.4,23.4c13.6,0,24.5-9.6,24.5-23.4
		C311.2,20.4,300.4,10.6,286.7,10.6z M286.7,48c-7.2,0-13.2-5.6-13.2-13.9c0-8.2,6-13.9,13.2-13.9c7.3,0,13.3,5.7,13.3,13.9
		C300,42.4,294,48,286.7,48z"/>
	<path class="st0" d="M359.9,11.7h-5.9c-3.6,0-5.4,1.1-6.6,4.2l-10,28.8h-0.2l-10.1-28.8c-1.1-3.1-2.9-4.2-6.6-4.2h-6.4
		c-2.6,0-4.7,2.1-4.7,4.7c0,2.6,2.1,4.7,4.7,4.7h1c1.2,0,2,0.4,2.4,1.6l12.8,33.7h13.2l12.8-33.7c0.4-1.1,1.2-1.6,2.4-1.6h1
		c2.6,0,4.7-2.1,4.7-4.7C364.6,13.8,362.5,11.7,359.9,11.7z"/>
	<path class="st0" d="M182.8,10.6c-12.9,0-23.3,9.7-23.3,23.4c0,13.8,10.3,23.4,23.3,23.4c4,0,7.7-0.9,11-2.6l0,0
		c1.6-0.8,2.7-2.4,2.7-4.3c0-2.7-2.3-4.8-5.1-4.8c-0.9,0-1.7,0.2-2.5,0.6l0,0c-1.8,1.1-3.9,1.6-6.2,1.6c-5.5,0-10.4-3.7-12-9.5h13.7
		h10.4h10.9c0.2-1.4,0.4-2.9,0.4-4.4C206.2,20.4,195.8,10.6,182.8,10.6z M170.9,29.6c1.6-5.8,6.4-9.5,12-9.5c5.6,0,10.4,3.7,12,9.5
		H170.9z"/>
	<path class="st1" d="M48.5,34.7c-2.5,0-5,0.4-7.3,1c5.9,5.6,9.9,13.2,10.9,21.7c5.6-4.5,9.7-10.9,11.2-18.2
		C59.1,36.4,54,34.7,48.5,34.7z"/>
	<path class="st1" d="M32.5,40C25.8,45,21.4,52.9,21.4,61.8c0,0.2,0,0.3,0,0.5c3.4,1.3,7.2,2,11,2s7.6-0.7,11-2c0-0.2,0-0.3,0-0.5
		C43.6,52.9,39.2,45,32.5,40z"/>
	<path class="st1" d="M16.5,25.8c5.8,0,11.2,1.4,16,3.8c4.8-2.4,10.3-3.8,16-3.8c5.5,0,10.7,1.2,15.3,3.4c-1.8-15.8-15.1-28-31.4-28
		c-16.2,0-29.6,12.3-31.4,28C5.8,27,11,25.8,16.5,25.8z"/>
	<path class="st1" d="M1.6,39.2c1.5,7.3,5.6,13.7,11.2,18.2c1-8.5,5-16.1,10.9-21.7c-2.3-0.6-4.7-1-7.3-1C11,34.7,5.9,36.4,1.6,39.2
		z"/>
	<path class="st0" d="M155.3,11.7L155.3,11.7l-7.6,0c-3.7,0-5.4,1.1-6.3,4.6L134,45.1h-0.2l-9.3-33.3h-9.6l-9.3,33.3h-0.2L98,16.2
		c-0.9-3.4-2.6-4.6-6.3-4.6h-7.6v0c-2.6,0-4.7,2.1-4.7,4.7c0,2.6,2.1,4.7,4.7,4.7c0.1,0,0.1,0,0.1,0h1.1c1.3,0,2,0.3,2.4,1.6
		l10.7,33.7H111l8.7-29.7l8.7,29.7h12.6l10.7-33.7c0.4-1.3,1.1-1.6,2.4-1.6h1.1c0,0,0.1,0,0.1,0c2.6,0,4.7-2.1,4.7-4.7
		C160,13.8,157.9,11.7,155.3,11.7z"/>
</g>
</svg>
