<svg id="Layer_1" data-name="Layer 1" xmlns="http://www.w3.org/2000/svg" viewBox="0 0 288 76.79"><defs><style>.cls-1{fill:#43c6f0;}.cls-2{fill:#2d69af;}</style></defs><title>Artboard 1</title><path class="cls-1" d="M3.89,43.44a10.46,10.46,0,0,0,7.42,3.5c3.14,0,5.67-2,5.67-5.09C17,34.76,2.84,36.18,2.84,27.3c0-4,3.46-7.34,8.76-7.34,2.77,0,7.74,1.18,7.74,4.93v2H16.65V25.59c0-1.71-2.36-3-5-3-3.71,0-5.87,2.16-5.87,4.61,0,6.64,14.14,5,14.14,14.47,0,4.28-3.3,7.91-8.68,7.91a12.15,12.15,0,0,1-9.09-4.08Z"/><path class="cls-1" d="M32.74,28.12a10.74,10.74,0,1,1-10.8,10.64A10.6,10.6,0,0,1,32.74,28.12Zm0,19a8.08,8.08,0,0,0,7.95-8.35,8,8,0,1,0-15.94,0A8.08,8.08,0,0,0,32.78,47.11Z"/><path class="cls-1" d="M56,28.12c2.32,0,7.3,1,7.3,4.36v1.83H60.7V33.13c0-1.71-3-2.53-4.69-2.53a7.86,7.86,0,0,0-7.95,8.27,7.86,7.86,0,0,0,8,8.19,9.06,9.06,0,0,0,6.6-2.89L64,46.25a10.82,10.82,0,0,1-8,3.34A10.37,10.37,0,0,1,45.2,38.87,10.49,10.49,0,0,1,56,28.12Z"/><path class="cls-1" d="M67.21,31.91a.82.82,0,0,0-.9-.9H64.6v-2.4h2.89c1.75,0,2.49.73,2.49,2.49V45.81a.8.8,0,0,0,.9.9h1.71v2.4H69.7c-1.75,0-2.49-.73-2.49-2.49Zm-.08-11.45h2.69V24H67.13Z"/><path class="cls-1" d="M86.24,36.48h1.14v-.24c0-4.28-1.55-5.79-5.3-5.79-1,0-4,.29-4,1.79v1.3H75.44v-2c0-2.85,4.89-3.46,6.68-3.46,6.48,0,8,3.46,8,7.87v9.82a.8.8,0,0,0,.9.9h1.71v2.4H90c-1.75,0-2.45-.77-2.45-2.45,0-.9,0-1.51,0-1.51h-.07a7.25,7.25,0,0,1-6.81,4.44c-3.42,0-7-2-7-6.07C73.69,36.72,82.7,36.48,86.24,36.48ZM81.11,47.23c3.91,0,6.28-4.08,6.28-7.62v-.94H86.21c-3.22,0-9.66.08-9.66,4.69C76.54,45.28,78.05,47.23,81.11,47.23Z"/><path class="cls-1" d="M95.49,23.76a.82.82,0,0,0-.9-.9H92.88v-2.4h2.89c1.75,0,2.49.73,2.49,2.49V45.81a.8.8,0,0,0,.9.9h1.71v2.4H98c-1.75,0-2.49-.73-2.49-2.49Z"/><path class="cls-2" d="M103.68,46.58h1.51c.57,0,.86-.29.9-.9l2-25.23H111l7.58,16.67c.69,1.47,1.43,3.38,1.43,3.38h.08s.73-1.92,1.39-3.38L129,20.45h2.89l2,25.23c0,.61.33.9.9.9h1.55v2.53h-2.77c-1.75,0-2.36-.73-2.49-2.49l-1.34-17.4c-.12-1.55-.12-4-.12-4h-.08a36.45,36.45,0,0,1-1.47,4L121.3,43.77h-2.57L112,29.22c-.65-1.43-1.51-4.08-1.51-4.08h-.08s0,2.53-.12,4.08l-1.34,17.4c-.12,1.75-.73,2.49-2.49,2.49h-2.73V46.58Z"/><path class="cls-2" d="M147.33,28.12c5.67,0,8.6,4.36,8.6,9.46,0,.49-.08,1.39-.08,1.39H140.12c.08,5.18,3.71,8.15,7.95,8.15a9.11,9.11,0,0,0,6.15-2.53l1.34,2.08a11.66,11.66,0,0,1-7.62,2.93,10.39,10.39,0,0,1-10.72-10.72C137.22,32.16,141.82,28.12,147.33,28.12Zm5.74,8.64c-.16-4.24-2.77-6.32-5.79-6.32-3.38,0-6.36,2.2-7.05,6.32Z"/><path class="cls-2" d="M167.21,28.12A7.23,7.23,0,0,1,173.89,32H174a15,15,0,0,1-.08-1.55V23.76a.82.82,0,0,0-.9-.9h-1.71v-2.4h2.89c1.75,0,2.49.73,2.49,2.49V45.81a.8.8,0,0,0,.9.9h1.71v2.4h-2.85c-1.71,0-2.45-.77-2.45-2.28a9.63,9.63,0,0,1,.08-1.3H174a7.41,7.41,0,0,1-7.05,4.08c-5.5,0-8.93-4.4-8.93-10.76S161.83,28.12,167.21,28.12ZM174,38.84c0-4.16-2.12-8.23-6.52-8.23-3.63,0-6.6,3.06-6.6,8.23s2.65,8.27,6.48,8.27C170.76,47.11,174,44.67,174,38.84Z"/><path class="cls-2" d="M182.37,31.91a.82.82,0,0,0-.9-.9h-1.71v-2.4h2.89c1.75,0,2.49.73,2.49,2.49V45.81a.8.8,0,0,0,.9.9h1.71v2.4h-2.89c-1.75,0-2.49-.73-2.49-2.49Zm-.08-11.45H185V24h-2.69Z"/><path class="cls-2" d="M201.4,36.48h1.14v-.24c0-4.28-1.55-5.79-5.3-5.79-1,0-4,.29-4,1.79v1.3H190.6v-2c0-2.85,4.89-3.46,6.68-3.46,6.48,0,8,3.46,8,7.87v9.82a.8.8,0,0,0,.9.9h1.71v2.4h-2.81c-1.75,0-2.45-.77-2.45-2.45,0-.9,0-1.51,0-1.51h-.08a7.25,7.25,0,0,1-6.81,4.44c-3.42,0-7-2-7-6.07C188.85,36.72,197.85,36.48,201.4,36.48Zm-5.14,10.75c3.91,0,6.28-4.08,6.28-7.62v-.94h-1.18c-3.22,0-9.66.08-9.66,4.69C191.7,45.28,193.21,47.23,196.26,47.23Z"/><path class="cls-2" d="M237.07,30.32A2.32,2.32,0,0,0,234.75,28h-5.09c-1.73,0-2.42,1-2.42,2v.54h-.1s-1.68-3.11-6.77-3.11c-6.33,0-9.78,4.94-9.78,11s3.61,11.17,9.88,11.17c2.92,0,4.84-1,6.13-2.87h.1s0,.64,0,1.19v1c0,4-2.92,5.44-6.23,5.44a14.31,14.31,0,0,1-5.78-1.33,2.44,2.44,0,0,0-1.28-.4,2.32,2.32,0,0,0-.69,4.54h0a17.3,17.3,0,0,0,7.81,1.93c5.73,0,11.61-2.87,11.61-10.43V33.53a.87.87,0,0,1,.94-.89h1.68A2.33,2.33,0,0,0,237.07,30.32ZM221.65,45c-3.56,0-5.49-2.87-5.49-6.72s1.83-6.13,5.14-6.13c3,0,5.49,1.33,5.49,6.37S224.32,45,221.65,45Z"/><path class="cls-2" d="M248,27.45c-6.67,0-12.06,4.79-12.06,11.56S241.27,50.57,248,50.57,260.1,45.83,260.1,39,254.76,27.45,248,27.45Zm0,18.48a6.54,6.54,0,0,1-6.52-6.87,6.55,6.55,0,1,1,13.09,0A6.54,6.54,0,0,1,248,45.93Z"/><path class="cls-2" d="M284.17,28h-2.92c-1.78,0-2.67.54-3.26,2.08L273.05,44.3H273l-5-14.23c-.54-1.53-1.43-2.08-3.26-2.08h-3.16a2.32,2.32,0,1,0,0,4.64H262a1.09,1.09,0,0,1,1.19.79l6.33,16.65h6.52l6.33-16.65a1.14,1.14,0,0,1,1.19-.79h.49a2.32,2.32,0,0,0,2.32-2.32A2.19,2.19,0,0,0,284.17,28Z"/></svg>