<svg xmlns="http://www.w3.org/2000/svg" viewBox="0 0 319 319"><defs><style>.cls-1{fill:#43b4f9;}.cls-2{fill:none;stroke:#43b4f9;stroke-width:18px;}</style></defs><title>Asset 1</title><g id="Layer_2" data-name="Layer 2"><g id="Layer_1-2" data-name="Layer 1"><path class="cls-1" d="M140.67,264.17a432,432,0,0,1-67.41-8.64A26.77,26.77,0,0,1,68.38,254c-5.85-2.48-7.29-5-6.53-11.25,3-25.23,17.13-42.63,38.93-54.31,10.68-5.72,21.69-10.84,32.58-16.15,1.62-.79,1.9-1.2.62-2.71a62.5,62.5,0,0,1-9.66-16.34c-.24-.55-.78-1.12-.27-2.08a64,64,0,0,0,16.62,7.56c2,.55,3.87,1,5.19,3,1,1.53,3,1.83,4.89,1.83,4.85,0,9.7.06,14.55,0,4.36-.06,7.23-2.73,7.11-6.46s-2.84-6-7.21-6c-4.75,0-9.5,0-14.26,0a6.58,6.58,0,0,0-4.32,1.09,2.15,2.15,0,0,1-2.09.34c-8.46-2.29-16.17-6-22.49-12.18a13,13,0,0,1-3.9-7,134.53,134.53,0,0,1-1.77-40.82c1.77-16.11,10.79-26.77,26.16-31.87a54.19,54.19,0,0,1,36.85.61c14.54,5.4,22.91,16,24.43,31.39,2,20,.35,39.8-7.19,58.76A63.8,63.8,0,0,1,186,169.8c-1.06,1.24-.84,1.7.54,2.38,10.71,5.27,21.46,10.47,32.06,16,23.17,12,37.4,30.38,40,56.88.4,4-1.86,6.4-5,8.17-4.4,2.46-9.38,3-14.2,3.92a449.78,449.78,0,0,1-59.9,7.06,9.48,9.48,0,0,1-2.91.19H172.7c-1.92.17-3.87-.35-5.76.3H153.25c-1.88-.65-3.82-.13-5.73-.3H143.6A9.61,9.61,0,0,1,140.67,264.17Z"/><path class="cls-1" d="M167.51,36.46c3.83.75,7.68,1.39,11.47,2.3,13.54,3.23,25.52,9.11,34,20.65,6,8.15,8.55,17.45,9,27.42a16.36,16.36,0,0,1,.05,1.71c-.21,2.41.67,3.76,3,4.9a14.76,14.76,0,0,1,8.58,11.68,87.75,87.75,0,0,1,0,23.57c-1.3,9-10.54,15.27-19.51,14-1.75-.25-1.27-1.36-1.27-2.27,0-8.74,0-17.49,0-26.23s0-17.67-.21-26.5c-.39-16.44-7.93-28.58-22.89-35.38-20.24-9.2-40.72-9-60.72.79-14.51,7.11-21.36,19.37-21.51,35.39q-.23,25.65-.14,51.31c0,2.45-.73,2.93-3,2.9-11-.14-18.34-7.47-18.35-18.48,0-4.85,0-9.7,0-14.55,0-7.85,3.29-13.72,10.53-17C97.93,92,98,91.19,98,90c.25-7.43,1.13-14.76,4.13-21.66C108.27,54.24,119.49,46,133.57,41a84.66,84.66,0,0,1,17.15-3.94c.51-.07,1.19.22,1.39-.59Z"/><path class="cls-1" d="M147.48,264.16c1.93.13,3.93-.66,5.77.5h-5.71c-.17-.1-.23-.2-.19-.32S147.43,264.16,147.48,264.16Z"/><path class="cls-1" d="M166.94,264.66c1.84-1.16,3.84-.37,5.76-.5.15.13.19.24.12.35s-.12.15-.17.15Z"/><path class="cls-1" d="M147.48,264.16a2.07,2.07,0,0,1,.06.5h-4c-.18-.1-.24-.21-.19-.33s.1-.17.16-.17Z"/><path class="cls-1" d="M172.65,264.66a2.73,2.73,0,0,1,0-.5h4c.16.12.21.23.15.34s-.12.16-.18.16Z"/><path class="cls-1" d="M143.52,264.16a1.39,1.39,0,0,1,0,.5H140.7a3.91,3.91,0,0,0,0-.49Z"/><path class="cls-1" d="M176.64,264.66a1.39,1.39,0,0,1,0-.5h2.85a3.91,3.91,0,0,0,0,.49Z"/><circle class="cls-2" cx="159.5" cy="159.5" r="150.5"/></g></g></svg>