<?xml version="1.0" encoding="utf-8"?>
<!-- Generator: Adobe Illustrator 21.0.0, SVG Export Plug-In . SVG Version: 6.00 Build 0)  -->
<svg version="1.1" id="Camada_1" xmlns="http://www.w3.org/2000/svg" xmlns:xlink="http://www.w3.org/1999/xlink" x="0px" y="0px"
	 viewBox="0 0 247.4 76.5" style="enable-background:new 0 0 247.4 76.5;" xml:space="preserve">
<style type="text/css">
	.st0{fill:#00C0F0;}
</style>
<path class="st0" d="M42.8,74c-2.4-1.6-4.1-4.1-5.1-7.6c-1-3.4-1.5-8-1.5-13.6v-7.7c0-5.7,0.6-10.3,1.7-13.8c1.2-3.5,3-6,5.4-7.6
	c2.5-1.6,5.7-2.4,9.7-2.4c3.9,0,7.1,0.8,9.5,2.4c2.4,1.6,4.1,4.2,5.2,7.6c1.1,3.4,1.7,8,1.7,13.8v7.7c0,5.7-0.5,10.2-1.6,13.7
	c-1.1,3.4-2.8,6-5.2,7.6c-2.4,1.6-5.7,2.4-9.8,2.4C48.6,76.5,45.2,75.6,42.8,74 M56.3,65.7c0.7-1.7,1-4.6,1-8.5V40.6
	c0-3.8-0.3-6.6-1-8.4c-0.7-1.8-1.8-2.6-3.5-2.6c-1.6,0-2.8,0.9-3.4,2.6c-0.7,1.8-1,4.6-1,8.4v16.6c0,3.9,0.3,6.8,1,8.5
	c0.6,1.7,1.8,2.6,3.5,2.6C54.5,68.3,55.6,67.4,56.3,65.7"/>
<path class="st0" d="M227.4,52.9v2.7c0,3.4,0.1,6,0.3,7.7c0.2,1.7,0.6,3,1.3,3.7c0.6,0.8,1.6,1.2,3,1.2c1.8,0,3-0.7,3.7-2.1
	c0.7-1.4,1-3.7,1.1-6.9l10.3,0.6c0.1,0.5,0.1,1.1,0.1,1.9c0,4.9-1.3,8.6-4,11c-2.7,2.4-6.5,3.6-11.4,3.6c-5.9,0-10-1.9-12.4-5.6
	c-2.4-3.7-3.6-9.4-3.6-17.2v-9.3c0-8,1.2-13.8,3.7-17.5c2.5-3.7,6.7-5.5,12.6-5.5c4.1,0,7.3,0.8,9.5,2.3c2.2,1.5,3.8,3.9,4.6,7
	c0.9,3.2,1.3,7.6,1.3,13.2v9.1H227.4z M228.9,30.5c-0.6,0.8-1,2-1.2,3.7c-0.2,1.7-0.3,4.3-0.3,7.8v3.8h8.8V42c0-3.4-0.1-6-0.3-7.8
	c-0.2-1.8-0.7-3-1.3-3.7c-0.6-0.7-1.5-1.1-2.8-1.1C230.4,29.4,229.5,29.8,228.9,30.5"/>
<path class="st0" d="M13.6,52L0,2.7h11.9L16.7,25c1.2,5.5,2.1,10.2,2.7,14.1h0.3c0.4-2.8,1.3-7.4,2.7-14l5-22.4h11.9L25.5,52v23.6
	H13.6V52z"/>
<path class="st0" d="M108.1,22.3v53.3h-9.4l-1-6.5h-0.3c-2.5,4.9-6.4,7.4-11.5,7.4c-3.5,0-6.1-1.2-7.8-3.5
	c-1.7-2.3-2.5-5.9-2.5-10.9V22.3h12v39.1c0,2.4,0.3,4.1,0.8,5.1c0.5,1,1.4,1.5,2.6,1.5c1,0,2-0.3,3-1c1-0.6,1.7-1.4,2.1-2.4V22.3
	H108.1z"/>
<path class="st0" d="M169.6,22.3v53.3h-9.4l-1-6.5h-0.3c-2.6,4.9-6.4,7.4-11.5,7.4c-3.5,0-6.1-1.2-7.8-3.5
	c-1.7-2.3-2.5-5.9-2.5-10.9V22.3h12v39.1c0,2.4,0.3,4.1,0.8,5.1c0.5,1,1.4,1.5,2.6,1.5c1,0,2-0.3,3-1c1-0.6,1.7-1.4,2.1-2.4V22.3
	H169.6z"/>
<polygon class="st0" points="140.7,12.3 128.8,12.3 128.8,75.6 117,75.6 117,12.3 105.1,12.3 105.1,2.7 140.7,2.7 "/>
<path class="st0" d="M209.3,30.8c-0.7-3.4-1.9-5.8-3.5-7.3c-1.6-1.5-3.9-2.3-6.7-2.3c-2.2,0-4.3,0.6-6.2,1.9
	c-1.9,1.2-3.4,2.9-4.4,4.9h-0.1l0-28.1h-11.6v75.6h9.9l1.2-5h0.3c0.9,1.8,2.3,3.2,4.2,4.3c1.9,1,3.9,1.6,6.2,1.6
	c4.1,0,7-1.9,8.9-5.6s2.9-9.6,2.9-17.5v-8.4C210.3,38.9,210,34.2,209.3,30.8 M198.3,52.6c0,3.9-0.2,6.9-0.5,9.1
	c-0.3,2.2-0.9,3.8-1.6,4.7c-0.8,0.9-1.8,1.4-3,1.4c-1,0-1.9-0.2-2.7-0.7c-0.8-0.5-1.5-1.2-2-2.1V34.8c0.4-1.4,1.1-2.6,2.1-3.6
	c1-0.9,2.1-1.4,3.2-1.4c1.2,0,2.2,0.5,2.8,1.4c0.7,1,1.1,2.6,1.4,4.8c0.3,2.3,0.4,5.5,0.4,9.6V52.6z"/>
</svg>
